HIERARCHY
ROOT Hips
{
	OFFSET 0.000000 0.000000 0.000000 
	CHANNELS 6 Xposition Yposition Zposition Zrotation Yrotation Xrotation
	JOINT LeftUpLeg
	{
		OFFSET 1.363060 -1.794630 0.839290 
		CHANNELS 3 Zrotation Yrotation Xrotation
		JOINT LeftLeg
		{
			OFFSET 2.448110 -6.726130 0.000000 
			CHANNELS 3 Zrotation Yrotation Xrotation
			JOINT LeftFoot
			{
				OFFSET 2.562200 -7.039590 0.000000 
				CHANNELS 3 Zrotation Yrotation Xrotation
				JOINT LeftToeBase
				{
					OFFSET 0.157640 -0.433110 2.322550 
					CHANNELS 3 Zrotation Yrotation Xrotation
					End Site
					{
						OFFSET 0.000000 0.000000 0.000000 
					}
				}
			}
		}
	}
	JOINT RightUpLeg
	{
		OFFSET -1.305520 -1.794630 0.839290 
		CHANNELS 3 Zrotation Yrotation Xrotation
		JOINT RightLeg
		{
			OFFSET -2.542530 -6.985550 0.000000 
			CHANNELS 3 Zrotation Yrotation Xrotation
			JOINT RightFoot
			{
				OFFSET -2.568260 -7.056230 0.000000 
				CHANNELS 3 Zrotation Yrotation Xrotation
				JOINT RightToeBase
				{
					OFFSET -0.164730 -0.452590 2.363150 
					CHANNELS 3 Zrotation Yrotation Xrotation
					End Site
					{
						OFFSET 0.000000 0.000000 0.000000 
					}
				}
			}
		}
	}
	JOINT Spine
	{
		OFFSET 0.028270 2.035590 -0.193380 
		CHANNELS 3 Zrotation Yrotation Xrotation
		JOINT Spine1
		{
			OFFSET 0.056720 2.048850 -0.042750 
			CHANNELS 3 Zrotation Yrotation Xrotation
			JOINT Neck1
			{
				OFFSET -0.054170 1.746240 0.172020 
				CHANNELS 3 Zrotation Yrotation Xrotation
				JOINT Head
				{
					OFFSET 0.104070 1.761360 -0.123970 
					CHANNELS 3 Zrotation Yrotation Xrotation
					End Site
					{
						OFFSET 0.000000 0.000000 0.000000 
					}
				}
			}
			JOINT LeftArm
			{
				OFFSET 3.362410 1.200890 -0.311210 
				CHANNELS 3 Zrotation Yrotation Xrotation
				JOINT LeftForeArm
				{
					OFFSET 4.983000 -0.000000 -0.000000 
					CHANNELS 3 Zrotation Yrotation Xrotation
					JOINT LeftHand
					{
						OFFSET 3.483560 -0.000000 -0.000000 
						CHANNELS 3 Zrotation Yrotation Xrotation
						JOINT LeftHandIndex1
						{
							OFFSET 0.715260 -0.000000 -0.000000 
							CHANNELS 3 Zrotation Yrotation Xrotation
							End Site
							{
								OFFSET 0.000000 0.000000 0.000000 
							}
						}
					}
				}
			}
			JOINT RightArm
			{
				OFFSET -3.136600 1.374050 -0.404650 
				CHANNELS 3 Zrotation Yrotation Xrotation
				JOINT RightForeArm
				{
					OFFSET -5.241900 -0.000000 -0.000000 
					CHANNELS 3 Zrotation Yrotation Xrotation
					JOINT RightHand
					{
						OFFSET -3.444170 -0.000000 -0.000000 
						CHANNELS 3 Zrotation Yrotation Xrotation
						JOINT RightHandIndex1
						{
							OFFSET -0.622530 -0.000000 -0.000000 
							CHANNELS 3 Zrotation Yrotation Xrotation
							End Site
							{
								OFFSET 0.000000 0.000000 0.000000 
							}
						}
					}
				}
			}
		}
	}
}
MOTION
Frames: 13
Frame Time: 0.041667
7.960011 20.949553 17.308776 178.404160 -1.749173 -162.442050 -28.018317 -6.301856 -9.880199 6.828247 14.947113 48.554124 0.041929 7.712380 -0.686921 0.396900 -4.044900 -11.203000 23.599168 22.668739 -37.394856 -1.780658 -11.396944 30.193158 -0.509928 2.119126 -14.333297 -0.534100 4.683100 -13.006800 1.748963 -1.957163 -4.633360 3.312386 -1.058015 1.381782 4.370382 -0.319667 17.100894 1.153100 0.338800 7.113000 -89.724669 -2.633019 30.061096 10.367804 -20.191007 -2.690045 0.594472 1.085299 25.171257 -7.125000 0.000000 0.000000 82.262612 -5.938443 -31.620607 0.768015 9.665648 -1.643661 -0.955382 -1.598887 39.519458 7.125000 0.000000 0.000000 
7.988740 21.009048 17.014732 178.639154 -1.833839 -162.720540 -27.694118 -6.967687 -12.608503 7.822922 15.885330 52.306786 0.057697 6.789074 -2.824983 0.306100 -3.556900 -9.833400 24.807395 22.514613 -35.246919 -1.740681 -11.130571 29.771760 -0.584810 2.330290 -15.148647 -0.433700 4.226000 -11.713500 1.712853 -1.699980 -4.647942 3.132729 -0.922560 1.310898 4.441817 -0.514720 17.081842 1.211000 0.240600 7.113100 -89.591265 -1.605006 28.777948 10.213229 -20.047641 -2.728700 0.548020 1.149510 25.266924 -7.125000 0.000000 0.000000 81.866011 -4.829952 -27.003103 0.250720 11.404730 -1.819269 -0.859783 -1.663918 36.231795 7.125000 0.000000 0.000000 
8.019399 21.066721 16.723474 178.890782 -1.926759 -162.987311 -27.279596 -7.927361 -15.417577 8.770985 16.696493 55.715937 0.090924 5.799442 -4.283786 0.762700 -5.577300 -15.562700 26.000544 22.529332 -32.992204 -1.676451 -10.818865 29.228113 -0.676060 2.374679 -16.046260 -0.348800 3.794400 -10.499000 1.686480 -1.487412 -4.665408 3.001674 -0.811385 1.268916 4.554263 -0.644078 17.122742 1.307800 0.172600 7.145300 -89.474181 -0.834405 27.212297 9.837980 -19.589124 -2.653160 0.532429 1.164473 25.002304 -7.125000 0.000000 0.000000 81.388840 -3.697424 -22.020402 -0.396237 13.277983 -2.016463 -0.736953 -1.731530 32.294975 7.125000 0.000000 0.000000 
8.050808 21.124072 16.435110 178.957031 -2.018499 -163.353687 -26.988483 -9.104141 -18.040842 9.547612 17.312388 58.396397 0.127012 4.254265 -5.396060 0.393200 -4.026500 -11.151300 26.990273 22.453447 -30.614538 -1.610206 -10.469244 28.611039 -0.779315 2.473181 -16.972391 -0.246200 3.193200 -8.817000 1.650321 -1.289407 -4.653271 2.988221 -0.721434 1.302390 4.668575 -0.768542 17.220330 1.405500 0.108100 7.217700 -89.387387 -0.234045 25.752286 9.447950 -19.093355 -2.546478 0.507963 1.169368 24.452366 -7.125000 0.000000 0.000000 80.816376 -2.413853 -17.066507 -1.175471 15.188679 -2.267858 -0.587940 -1.832817 27.775604 7.125000 0.000000 0.000000 
8.076321 21.179172 16.152214 178.807564 -2.165598 -163.815771 -26.905355 -10.487850 -20.400636 10.093153 17.739656 60.240351 0.155759 2.575162 -6.432812 0.084200 -1.871100 -5.149600 27.788629 21.734494 -28.226767 -1.555214 -10.065980 27.894037 -0.871134 2.965075 -17.678513 -0.132300 2.344200 -6.457900 1.541034 -0.939185 -4.650750 2.855369 -0.539267 1.164220 5.149378 -1.408490 16.983494 1.539500 -0.840900 7.072300 -89.124864 0.490811 24.610915 9.135791 -18.692823 -2.460440 0.466214 1.183310 24.073589 -7.125000 0.000000 0.000000 80.500636 -1.486100 -12.367364 -2.228257 17.312992 -2.576921 -0.406073 -1.946442 22.831521 7.125000 0.000000 0.000000 
8.102263 21.228590 15.873820 178.812839 -2.298602 -164.322817 -26.550310 -11.823686 -22.767627 10.450083 18.042648 61.439227 0.166933 0.948559 -7.072170 0.552300 -4.760500 -13.226800 28.759527 20.812211 -25.814450 -1.494344 -9.624644 27.096246 -0.951540 3.549322 -18.195277 -0.064000 1.632000 -4.489700 1.349548 -0.299767 -4.687488 2.357596 -0.193740 0.824484 5.387013 -2.031865 16.736641 1.531100 -1.118400 6.791200 -88.392584 1.473184 23.811992 8.877255 -18.360336 -2.382896 0.426601 1.194809 23.803031 -7.125000 0.000000 0.000000 80.714556 -0.982160 -8.757951 -3.532849 19.501812 -2.918429 -0.214147 -2.062006 18.346896 7.125000 0.000000 0.000000 
8.136138 21.270398 15.600250 179.097130 -2.373897 -164.815775 -25.673852 -13.104117 -25.445115 10.460735 18.209332 61.584863 0.194904 1.376693 -7.716499 4.611200 -12.932100 -39.114700 30.022747 20.208318 -23.370097 -1.411991 -9.177666 26.274635 -1.047357 3.802883 -18.789515 -0.042800 1.335300 -3.671800 1.356934 -0.157867 -4.635910 2.446677 -0.144201 0.953146 5.416068 -2.011773 17.187610 1.593000 -1.116900 7.095100 -88.373443 1.836898 21.525283 8.596023 -17.965089 -2.306356 0.408993 1.190372 23.964786 -7.125000 0.000000 0.000000 79.977687 0.578250 -4.765315 -4.648727 21.211650 -3.193408 -0.012244 -2.082166 14.396575 7.125000 0.000000 0.000000 
8.166368 21.305130 15.330110 179.414282 -2.492015 -165.239246 -24.622456 -14.594960 -28.129182 10.465829 18.363623 61.688594 0.253066 0.627344 -9.247514 4.527600 -12.831200 -38.739700 31.260829 19.448274 -21.049305 -1.322813 -8.713999 25.396275 -1.139483 4.090044 -19.301686 -0.033200 1.176000 -3.233300 1.367744 0.005996 -4.603383 2.530254 -0.073694 1.046702 5.549965 -1.989532 17.612329 1.718800 -1.120500 7.362500 -88.349691 2.299905 19.677362 8.352692 -17.619031 -2.234809 0.389639 1.184758 24.143289 -7.125000 0.000000 0.000000 79.253261 2.117391 -1.278142 -5.787629 22.801485 -3.502809 0.146488 -2.083605 10.921526 7.125000 0.000000 0.000000 
8.190059 21.331501 15.059863 179.654655 -2.596559 -165.644925 -23.598427 -16.129929 -30.561593 10.314890 18.418755 61.287725 0.361512 -0.256391 -11.407190 4.575400 -12.889100 -38.954600 32.308916 18.420048 -18.856209 -1.245619 -8.247653 24.514374 -1.216260 4.605693 -19.642671 -0.024300 1.006700 -2.767200 1.264288 0.555342 -4.619123 2.286851 0.218849 0.854990 5.709984 -2.397501 17.506694 1.726800 -1.305000 7.211700 -87.748384 2.971608 19.026226 8.040203 -17.207434 -2.144087 0.375324 1.183942 24.292243 -7.125000 0.000000 0.000000 79.082687 3.138282 0.921290 -7.122214 24.480948 -3.911238 0.299933 -2.116609 8.416508 7.125000 0.000000 0.000000 
8.214178 21.353369 14.790474 179.788137 -2.607965 -166.180909 -22.626584 -17.533423 -32.720421 9.912194 18.311083 60.061250 0.444921 -0.808880 -12.753266 4.130400 -12.331900 -36.916500 33.188460 17.298077 -16.531270 -1.165129 -7.731507 23.532315 -1.283869 5.190247 -19.863597 -0.011500 0.692500 -1.903200 1.223858 0.878997 -4.634978 2.328069 0.395557 0.596537 5.749778 -2.587986 17.450534 1.745500 -1.412700 7.102100 -87.453375 3.475954 17.642079 7.608912 -16.626981 -2.038024 0.386789 1.178433 24.976833 -7.125000 0.000000 0.000000 78.591507 4.149376 3.803062 -8.568390 26.208282 -4.323076 0.470071 -2.101160 5.835720 7.125000 0.000000 0.000000 
8.232724 21.367090 14.531375 -179.974735 -2.254749 -166.584603 -21.438894 -18.602457 -35.087380 9.311950 18.077969 58.179750 0.512992 -1.045161 -13.723289 3.638100 -11.662600 -34.548500 34.008403 16.356951 -14.539214 -1.100667 -7.279495 22.664065 -1.326742 6.049313 -19.912950 -0.002300 0.311500 -0.855800 1.175975 1.153250 -4.646958 2.255376 0.540070 0.408195 5.855830 -2.629753 17.792581 1.855400 -1.461400 7.271800 -87.324313 3.901719 15.682718 7.213522 -16.058285 -1.944851 0.406397 1.169617 25.895918 -7.125000 0.000000 0.000000 78.058586 5.359669 6.907557 -9.941215 27.788165 -4.699505 0.593741 -2.073001 3.748151 7.125000 0.000000 0.000000 
8.253306 21.376738 14.264666 -179.841146 -2.209382 -167.215895 -20.339192 -19.768183 -36.879201 8.558882 17.686902 55.735085 0.626494 -1.570293 -15.171624 3.675800 -11.716000 -34.734500 34.692839 15.003344 -12.129963 -0.997513 -6.702216 21.517006 -1.412021 6.506600 -20.208785 -0.004100 0.413200 -1.135300 0.992420 1.612434 -4.635442 1.645998 0.769743 0.208319 6.149229 -3.065933 18.234073 1.921400 -1.656900 7.445800 -86.450311 4.446811 14.970121 6.920528 -15.636816 -1.866244 0.409255 1.169040 26.334567 -7.125000 0.000000 0.000000 78.190569 6.465446 8.702441 -11.198780 29.205859 -5.123892 0.689143 -2.098283 2.968758 7.125000 0.000000 0.000000 
8.268957 21.380276 13.996777 -179.771644 -2.014691 -167.715281 -19.251914 -20.761842 -38.531415 7.652552 17.125032 52.684834 0.695235 -1.856084 -15.967676 3.473500 -11.424700 -33.725800 35.110954 13.528757 -10.050675 -0.910245 -6.176611 20.463749 -1.497783 7.110221 -20.506373 -0.013900 0.761700 -2.093300 0.853288 1.904328 -4.589150 1.219335 0.903930 0.236271 6.385118 -3.186851 18.464469 2.015500 -1.706700 7.541800 -85.848346 4.769183 13.784864 6.602886 -15.172597 -1.785745 0.412908 1.165736 26.971888 -7.125000 0.000000 0.000000 78.137187 7.819149 10.850393 -12.406149 30.506008 -5.502371 0.777363 -2.105669 2.307683 7.125000 0.000000 0.000000 
